# Blender 3.5.0
# www.blender.org
mtllib CutPlane.mtl
o Plane
v -1.000000 0.000000 1.000000
v 1.000000 0.000000 1.000000
v -1.000000 0.000000 -1.000000
v 1.000000 0.000000 -1.000000
v -1.000000 0.000000 -0.661039
v 1.000000 0.000000 -0.661039
v 0.547176 0.000000 1.000000
v 0.547176 0.000000 -1.000000
v 0.547176 0.000000 -0.661039
v -0.226412 0.000000 -1.000000
v -0.226412 0.000000 -0.661039
v -0.226412 0.000000 1.000000
vn -0.0000 1.0000 -0.0000
vt 0.000000 0.000000
vt 1.000000 0.000000
vt 0.000000 1.000000
vt 1.000000 1.000000
vt 0.000000 0.830520
vt 1.000000 0.830520
vt 0.773588 0.000000
vt 0.773588 1.000000
vt 0.773588 0.830520
vt 0.386794 1.000000
vt 0.386794 0.830520
vt 0.386794 0.000000
s 0
f 9/9/1 6/6/1 8/8/1
f 7/7/1 2/2/1 9/9/1
f 12/12/1 7/7/1 11/11/1
f 5/5/1 11/11/1 3/3/1
f 1/1/1 12/12/1 5/5/1
f 3/3/1 11/11/1 10/10/1
f 5/5/1 12/12/1 11/11/1
f 11/11/1 7/7/1 9/9/1
f 9/9/1 2/2/1 6/6/1
f 8/8/1 6/6/1 4/4/1
