# Blender 3.5.0
# www.blender.org
mtllib Cube0.mtl
o Cube
v -1.000000 -1.000000 1.000000
v -0.487673 1.042230 0.487673
v -1.000000 -1.000000 -1.000000
v -0.487673 1.042230 -0.487673
v 1.000000 -1.000000 1.000000
v 0.487673 1.042230 0.487673
v 1.000000 -1.000000 -1.000000
v 0.487673 1.042230 -0.487673
v -1.000000 1.000000 1.000000
v -1.000000 1.000000 -1.000000
v 1.000000 1.000000 -1.000000
v 1.000000 1.000000 1.000000
v -0.913722 1.000000 0.913722
v -0.913722 1.000000 -0.913722
v 0.913722 1.000000 -0.913722
v 0.913722 1.000000 0.913722
v -0.781057 0.942532 0.781057
v -0.781057 0.942532 -0.781057
v 0.781057 0.942532 -0.781057
v 0.781057 0.942532 0.781057
v -0.690057 0.942532 0.690057
v -0.690057 0.942532 -0.690057
v 0.690057 0.942532 -0.690057
v 0.690057 0.942532 0.690057
v -0.580288 1.042230 0.580288
v -0.580288 1.042230 -0.580288
v 0.580288 1.042230 -0.580288
v 0.580288 1.042230 0.580288
v -0.445939 0.930976 0.445939
v -0.445939 0.930976 -0.445939
v 0.445939 0.930976 -0.445939
v 0.445939 0.930976 0.445939
v -0.487673 0.930976 0.487673
v -0.487673 0.930976 -0.487673
v 0.487673 0.930976 -0.487673
v 0.487673 0.930976 0.487673
v -0.445939 1.007481 0.445939
v -0.415514 1.037907 0.415514
v -0.415514 1.037907 -0.415514
v -0.445939 1.007481 -0.445939
v 0.415514 1.037907 -0.415514
v 0.445939 1.007481 -0.445939
v 0.415514 1.037907 0.415514
v 0.445939 1.007481 0.445939
v -0.487673 1.042230 0.487673
v -0.487673 1.011025 0.487673
v -0.487673 1.011025 -0.487673
v -0.487673 1.042230 -0.487673
v 0.487673 1.011025 -0.487673
v 0.487673 1.042230 -0.487673
v 0.487673 1.011025 0.487673
v 0.487673 1.042230 0.487673
vn -1.0000 -0.0000 -0.0000
vn -0.0000 -0.0000 -1.0000
vn 1.0000 -0.0000 -0.0000
vn -0.0000 -0.0000 1.0000
vn -0.0000 -1.0000 -0.0000
vn -0.0000 1.0000 -0.0000
vn 0.3975 0.9176 -0.0000
vn -0.0000 0.9176 0.3975
vn -0.3975 0.9176 -0.0000
vn -0.0000 0.9176 -0.3975
vn -0.6723 0.7402 -0.0000
vn -0.0000 0.7402 -0.6723
vn 0.6723 0.7402 -0.0000
vn -0.0000 0.7402 0.6723
vn -0.7071 0.7071 -0.0000
vn -0.0000 0.7071 -0.7071
vn 0.7071 0.7071 -0.0000
vn -0.0000 0.7071 0.7071
vt 0.375000 0.000000
vt 0.375000 1.000000
vt 0.125000 0.750000
vt 0.810959 0.685959
vt 0.375000 0.250000
vt 0.125000 0.500000
vt 0.810959 0.564041
vt 0.375000 0.750000
vt 0.689041 0.685959
vt 0.375000 0.500000
vt 0.689041 0.564041
vt 0.625000 0.000000
vt 0.625000 1.000000
vt 0.875000 0.750000
vt 0.625000 0.250000
vt 0.875000 0.500000
vt 0.625000 0.500000
vt 0.625000 0.750000
vt 0.864215 0.739215
vt 0.864215 0.510785
vt 0.635785 0.510785
vt 0.635785 0.739215
vt 0.847632 0.722632
vt 0.847632 0.527368
vt 0.652368 0.527368
vt 0.652368 0.722632
vt 0.836257 0.711257
vt 0.836257 0.538743
vt 0.663743 0.538743
vt 0.663743 0.711257
vt 0.822536 0.697536
vt 0.822536 0.552464
vt 0.677464 0.552464
vt 0.677464 0.697536
vt 0.805742 0.680742
vt 0.805742 0.569258
vt 0.694258 0.569258
vt 0.694258 0.680742
vt 0.810959 0.685959
vt 0.810959 0.564041
vt 0.689041 0.564041
vt 0.689041 0.685959
vt 0.805742 0.680742
vt 0.801939 0.676939
vt 0.801939 0.573061
vt 0.805742 0.569258
vt 0.698061 0.573061
vt 0.694258 0.569258
vt 0.698061 0.676939
vt 0.694258 0.680742
vt 0.810959 0.685959
vt 0.810959 0.685959
vt 0.810959 0.564041
vt 0.810959 0.564041
vt 0.689041 0.564041
vt 0.689041 0.564041
vt 0.689041 0.685959
vt 0.689041 0.685959
s 0
f 1/1/1 9/12/1 10/15/1 3/5/1
f 3/5/2 10/15/2 11/17/2 7/10/2
f 7/10/3 11/17/3 12/18/3 5/8/3
f 5/8/4 12/18/4 9/13/4 1/2/4
f 3/6/5 7/10/5 5/8/5 1/3/5
f 13/19/6 14/20/6 10/16/6 9/14/6
f 14/20/6 15/21/6 11/17/6 10/16/6
f 15/21/6 16/22/6 12/18/6 11/17/6
f 16/22/6 13/19/6 9/14/6 12/18/6
f 17/23/7 18/24/7 14/20/7 13/19/7
f 18/24/8 19/25/8 15/21/8 14/20/8
f 19/25/9 20/26/9 16/22/9 15/21/9
f 20/26/10 17/23/10 13/19/10 16/22/10
f 21/27/6 22/28/6 18/24/6 17/23/6
f 22/28/6 23/29/6 19/25/6 18/24/6
f 23/29/6 24/30/6 20/26/6 19/25/6
f 24/30/6 21/27/6 17/23/6 20/26/6
f 25/31/11 26/32/11 22/28/11 21/27/11
f 26/32/12 27/33/12 23/29/12 22/28/12
f 27/33/13 28/34/13 24/30/13 23/29/13
f 28/34/14 25/31/14 21/27/14 24/30/14
f 2/4/6 4/7/6 26/32/6 25/31/6
f 4/7/6 8/11/6 27/33/6 26/32/6
f 8/11/6 6/9/6 28/34/6 27/33/6
f 6/9/6 2/4/6 25/31/6 28/34/6
f 49/55/4 47/53/4 34/40/4 35/41/4
f 46/52/2 51/57/2 36/42/2 33/39/2
f 47/53/3 46/52/3 33/39/3 34/40/3
f 51/57/1 49/55/1 35/41/1 36/42/1
f 2/4/6 6/9/6 52/58/6 45/51/6
f 8/11/6 4/7/6 48/54/6 50/56/6
f 6/9/6 8/11/6 50/56/6 52/58/6
f 29/35/6 30/36/6 34/40/6 33/39/6
f 30/36/6 31/37/6 35/41/6 34/40/6
f 31/37/6 32/38/6 36/42/6 35/41/6
f 32/38/6 29/35/6 33/39/6 36/42/6
f 29/35/4 32/38/4 44/50/4 37/43/4
f 41/47/6 39/45/6 38/44/6 43/49/6
f 31/37/2 30/36/2 40/46/2 42/48/2
f 32/38/3 31/37/3 42/48/3 44/50/3
f 38/44/15 39/45/15 40/46/15 37/43/15
f 39/45/16 41/47/16 42/48/16 40/46/16
f 41/47/17 43/49/17 44/50/17 42/48/17
f 43/49/18 38/44/18 37/43/18 44/50/18
f 30/36/1 29/35/1 37/43/1 40/46/1
f 46/52/3 47/53/3 48/54/3 45/51/3
f 47/53/4 49/55/4 50/56/4 48/54/4
f 49/55/1 51/57/1 52/58/1 50/56/1
f 51/57/2 46/52/2 45/51/2 52/58/2
f 4/7/6 2/4/6 45/51/6 48/54/6
